<?xml version="1.0" encoding="utf-8"?>
<svg id="master-artboard" viewBox="0 0 2340 1560" version="1.1" xmlns="http://www.w3.org/2000/svg" x="0px" y="0px" width="2340px" height="1560px" enable-background="new 0 0 2340 1560">


<path fill="#DCD90D" d="M1164.774,499.788c-11.543,22.843-18.315,45.118-19.823,56.437&#10;&#9;&#9;c-9.645-56.201,21.715-133.549,66.136-145.351c0.015-0.004,0.032-0.008,0.046-0.013c-6.463-8.478-16.605-17.189-28.923-21.25&#10;&#9;&#9;c-26.624,22.908-44.983,66.485-49.454,108.815c-38.537,5.547-59.533,37.142-70.185,78.576&#10;&#9;&#9;c-11.625,45.211-50.083,77.944-61.315,129.244c-19.255,87.922,47.171,175.43,143.998,174.632c7.923,0.065,15.637-0.471,23.122-1.54&#10;&#9;&#9;c-11.399-14.281-20.13-30.594-25.796-48.407c-8.707-27.366-7.94-53.342-7.262-76.258c0.526-17.854,1.024-34.712-3.096-49.485&#10;&#9;&#9;c-7.163-25.685-8.407-48.726-3.7-68.485c5.819-24.432,20.912-44.283,43.645-57.406c14.812-8.553,30.297-12.89,46.026-12.89&#10;&#9;&#9;c2.269,0,4.537,0.101,6.803,0.28C1214.374,532.884,1195.782,507.243,1164.774,499.788z" transform="matrix(1, 0, 0, 1, 2.842170943040401e-14, 7.105427357601002e-15)"/><path fill="#3DA938" d="M1043.031,438.833c12.974,12.392,69.591,26.794,90.917,17.672c-18-91.229-112.349-20.931-126.356-68.656&#10;&#9;&#9;c-11.72,39.363,16.556,117.802,117.881,81.353l0.335-0.466C1102.232,475.887,1050.947,463.669,1043.031,438.833z" transform="matrix(1, 0, 0, 1, 2.842170943040401e-14, 7.105427357601002e-15)"/><path fill="#3DA938" d="M1209.32,433.028c16.134,11.862,31.729,29.457,25.349,55.416c-2.849-19.612-21.019-41.822-38.925-51.55&#10;&#9;&#9;c-29.672,61.06,57.122,62.972,43.604,97.353C1264.041,516.569,1283.127,458.353,1209.32,433.028z" transform="matrix(1, 0, 0, 1, 2.842170943040401e-14, 7.105427357601002e-15)"/><path fill="#DCD90D" d="M1352.959,892.438c-73.073,42.994-161.754,5.72-185.644-69.379c-13.941-43.816,0.89-85.475-10.089-124.846&#10;&#9;&#9;c-11.102-39.805-7.415-76.039,27.917-96.438c35.331-20.398,68.554-5.473,97.476,24.042c28.608,29.195,72.1,37.179,103.075,71.16&#10;&#9;&#9;C1438.786,755.217,1426.728,850.652,1352.959,892.438L1352.959,892.438z" transform="matrix(1, 0, 0, 1, 2.842170943040401e-14, 7.105427357601002e-15)"/><path fill="#CCC60D" d="M1300.632,889.729c62.882,4.357,128.134-87.953,89.035-153.818&#10;&#9;&#9;C1350.568,670.046,1369.715,841.813,1300.632,889.729z" transform="matrix(1, 0, 0, 1, 2.842170943040401e-14, 7.105427357601002e-15)"/><path fill="#FFFFFF" d="M1127.697,521.038c-28.493-2.366-49.553,30.572-43.198,73.379&#10;&#9;&#9;C1091.299,568.155,1109.953,532.729,1127.697,521.038z" transform="matrix(1, 0, 0, 1, 2.842170943040401e-14, 7.105427357601002e-15)"/><path fill="#CCC60D" d="M1043.016,668.728c-47.547,41.382-28.416,152.796,45.807,171.723&#10;&#9;&#9;C1163.043,859.377,1028.047,751.459,1043.016,668.728z" transform="matrix(1, 0, 0, 1, 2.842170943040401e-14, 7.105427357601002e-15)"/><path fill="#FFFFFF" d="M1193.504,617.331c-27.307,8.465-37.539,43.019-10.947,79.225&#10;&#9;&#9;C1179.038,669.655,1181.421,634.812,1193.504,617.331z" transform="matrix(1, 0, 0, 1, 2.842170943040401e-14, 7.105427357601002e-15)"/><path fill="#11803F" d="M1283.499,466.357c1.583,4.676,2.519,8.986,3.062,12.684c4.856,33.165-13.236,62.808-32.099,76.312&#10;&#9;&#9;l-4.762,3.41c1.207,3.809,2.337,7.727,3.377,11.774c0.293,1.138,0.616,2.271,0.955,3.401c15.975,6.744,31.732,18,47.13,33.711&#10;&#9;&#9;c10.732,10.954,25.583,18.954,41.306,27.421c20.187,10.874,43.067,23.197,62.41,44.42c4.871,5.342,9.314,10.971,13.319,16.844&#10;&#9;&#9;c0.109-2.996,0.182-5.999,0.182-9.021C1418.379,591.038,1363.59,507.578,1283.499,466.357z" transform="matrix(1, 0, 0, 1, 2.842170943040401e-14, 7.105427357601002e-15)"/><path fill="#11803F" d="M1198.514,907.926c-2.895-2.078-5.696-4.25-8.417-6.499c-14.013,3.563-28.617,5.417-43.532,5.417&#10;&#9;&#9;c-0.444,0-0.872-0.001-1.311-0.007c-0.438,0.006-0.876,0.007-1.31,0.007c-52.845,0-101.809-23.182-134.333-63.601&#10;&#9;&#9;c-32.437-40.31-44.724-92.267-33.711-142.551c6.879-31.423,22.297-56.394,35.899-78.425c10.866-17.6,21.13-34.224,25.632-51.73&#10;&#9;&#9;c7.126-27.718,18.132-49.963,32.712-66.205c-18.349-1.156-34.974-6.613-48.899-15.918c-60.476,45.302-99.622,117.524-99.622,198.9&#10;&#9;&#9;c0,137.177,111.204,248.38,248.38,248.38c22.371,0,44.052-2.964,64.669-8.511C1221.936,922.468,1209.793,916.023,1198.514,907.926z&#10;&#9;&#9;" transform="matrix(1, 0, 0, 1, 2.842170943040401e-14, 7.105427357601002e-15)"/>
</svg>